# xmcd
#
# Track frame offsets: 
#        150
#        28233
#        40579
#        56417
#        68891
#        91394
#        114650
#        126671
#        157336
#        173981
#        186056
#
# Disc length: 2936 seconds
#
# Revision: 0
# Processed by: cddbd v1.5.2PL0 Copyright (c) Steve Scherf et al.
# Submitted via: ExactAudioCopy v1.0b3
#
DISCID=9e0b760b
DTITLE=Various Artist - Svenska Skratt [CD 9)
DYEAR=2011
DGENRE=Comedy
TTITLE0=Kalle Sändare - Julgrisar Till Salu - Indisk Språklektion
TTITLE1=Kalle Sändare - Dr Klaus Von Hamlets Borttappade Skor
TTITLE2=Kalle Sändare - Julgrisar Till Salu - Tysk Köpman  
TTITLE3=Kalle Sändare - Hörgundsen Har Ringt
TTITLE4=Kalle Sändare - Kinesiskt Julbord
TTITLE5=Kalle Sändare - Uthyrning Av Porrfilmer
TTITLE6=Kalle Sändare - Ljudtest För Sonab
TTITLE7=Kalle Sändare - El Zou Zou Söker Manlig Assistent
TTITLE8=Kalle Sändare - Värdshuset Pilgrimen
TTITLE9=Kalle Sändare - Varubelåning - Är Det Föreståndaren?
TTITLE10=Kalle Sändare - Ännu En Assistent Till El-Zou Zou
EXTD=
EXTT0=
EXTT1=
EXTT2=
EXTT3=
EXTT4=
EXTT5=
EXTT6=
EXTT7=
EXTT8=
EXTT9=
EXTT10=
PLAYORDER=
